<svg width="391" height="300" viewBox="0 0 391 300" fill="none" xmlns="http://www.w3.org/2000/svg">
<g filter="url(#filter0_d_120_214)">
<path d="M190.822 39.8357L73.6863 85.4728C70.6876 86.6412 69.0098 89.8422 69.7553 92.973L84.9585 156.827L72.8452 96.2599C72.219 93.129 73.9789 90.0114 76.9831 88.9299L193.32 47.0487C194.749 46.5341 196.315 46.5409 197.74 47.0679L311.094 88.9933C313.958 90.0526 315.686 92.9761 315.233 95.9961L306.108 156.827L319.817 92.8526C320.477 89.7705 318.812 86.6627 315.88 85.5053L200.237 39.8566C197.213 38.6631 193.85 38.6556 190.822 39.8357Z" fill="url(#paint0_linear_120_214)"/>
<path d="M47 161.778L104.763 165.078L50.3007 166.729V204.687L104.763 207.988L47 209.638V161.778Z" fill="url(#paint1_linear_120_214)"/>
<path d="M108.064 204.687L114.665 227.792L195.533 239.345L276.401 226.142L284.653 204.687L278.052 231.093L195.533 244.296L111.364 229.443L108.064 204.687Z" fill="url(#paint2_linear_120_214)"/>
<path d="M339.115 204.687L287.954 207.988H344.067L342.416 163.428L286.304 165.078L339.115 166.729V204.687Z" fill="url(#paint3_linear_120_214)"/>
<path d="M121.267 151.876L139.421 153.526H117.966L103.113 150.225L109.714 138.673V113.917L124.567 89.1615L144.372 84.2103L154.331 71.406C155.353 70.0913 156.845 69.2234 158.493 68.9841L186.36 64.9385C186.973 64.8494 187.593 64.8047 188.212 64.8047H203.074C203.698 64.8047 204.322 64.85 204.939 64.9404L232.577 68.982C234.223 69.2226 235.712 70.0901 236.733 71.403L246.695 84.2103L266.499 90.8118L281.352 113.917L279.702 140.323L286.304 150.225L264.849 155.176H251.646L283.003 148.575L278.052 141.973L266.499 145.274L256.597 143.624L266.499 141.973L276.401 138.673L278.052 117.218H258.247L276.401 113.917L263.198 92.4622L245.044 85.8607L225.24 84.2103L241.744 82.56L233.492 71.0074L203.656 66.3657L187.539 65.7211L154.274 72.6578L146.022 84.2103H160.876L126.218 92.4622L113.015 115.567L131.169 117.218H111.364L113.015 138.673L122.917 141.973L132.819 145.274H121.267L111.364 141.973L108.064 148.575L121.267 151.876Z" fill="url(#paint4_linear_120_214)"/>
<path d="M159.225 74.3081L185.631 70.2338L184.858 70.579C179.439 73.0008 179.946 80.8543 185.631 82.56L154.274 80.9096L159.225 74.3081Z" fill="url(#paint5_linear_120_214)"/>
<path d="M203.785 82.56L204.719 82.3266C210.697 80.832 211.292 72.5702 205.59 70.2338L231.841 74.3081L235.142 80.9096L203.785 82.56Z" fill="url(#paint6_linear_120_214)"/>
<path d="M174.078 85.8607H171.798C170.088 85.8607 168.448 86.5399 167.239 87.7489L164.104 90.8842C161.981 93.0073 160.381 95.5955 159.432 98.4439L157.575 104.015L162.62 96.4464C163.652 94.8986 164.902 93.5078 166.331 92.3169L174.078 85.8607Z" fill="url(#paint7_linear_120_214)"/>
<path d="M221.939 85.8607H216.988L224.286 92.7974L233.492 102.364L228.541 94.1126L221.939 85.8607Z" fill="url(#paint8_linear_120_214)"/>
<path d="M127.971 101.676L131.169 97.4133L152.624 110.616H134.523C132.375 110.616 130.316 109.763 128.797 108.245L128.411 107.858C128.051 107.499 127.752 107.084 127.525 106.629C126.724 105.027 126.897 103.11 127.971 101.676Z" fill="url(#paint9_linear_120_214)"/>
<path d="M259.898 97.4133L236.793 110.616H252.635C253.075 110.616 253.513 110.573 253.945 110.487L257.776 109.72C260.109 109.254 262.012 107.573 262.764 105.317C263.042 104.483 262.978 103.573 262.585 102.787L259.898 97.4133Z" fill="url(#paint10_linear_120_214)"/>
<path d="M134.47 120.518L117.966 122.169L131.169 123.819V130.421L122.917 132.071H134.47V120.518Z" fill="url(#paint11_linear_120_214)"/>
<path d="M150.973 117.218L142.721 135.372L154.274 120.518H236.793L248.345 135.372L238.443 117.218H150.973Z" fill="url(#paint12_linear_120_214)"/>
<path d="M165.827 123.819H223.641C222.601 125.836 220.495 127.077 218.227 127.009L195.275 126.321L171.166 127.014C168.916 127.079 166.833 125.832 165.827 123.819Z" fill="url(#paint13_linear_120_214)"/>
<path d="M223.606 128.77H163.106C162.731 128.77 162.368 128.901 162.078 129.14C160.902 130.111 161.606 132.022 163.132 131.998L195.92 131.478L223.576 131.997C225.019 132.024 225.769 130.289 224.761 129.257C224.457 128.946 224.041 128.77 223.606 128.77Z" fill="url(#paint14_linear_120_214)"/>
<path d="M233.492 135.372H152.624L195.92 137.925L233.492 135.372Z" fill="url(#paint15_linear_120_214)"/>
<path d="M241.744 148.575H144.372L197.195 153.465C197.633 153.505 198.075 153.501 198.512 153.452L241.744 148.575Z" fill="url(#paint16_linear_120_214)"/>
<path d="M271.45 122.169L254.947 120.518V132.071H266.499L258.247 130.421V123.819L271.45 122.169Z" fill="url(#paint17_linear_120_214)"/>
<path d="M190.822 39.8357L73.6863 85.4728C70.6876 86.6412 69.0098 89.8422 69.7553 92.973L84.9585 156.827L72.8452 96.2599C72.219 93.129 73.9789 90.0114 76.9831 88.9299L193.32 47.0487C194.749 46.5341 196.315 46.5409 197.74 47.0679L311.094 88.9933C313.958 90.0526 315.686 92.9761 315.233 95.9961L306.108 156.827L319.817 92.8526C320.477 89.7705 318.812 86.6627 315.88 85.5053L200.237 39.8566C197.213 38.6631 193.85 38.6556 190.822 39.8357Z" stroke="url(#paint18_linear_120_214)" stroke-width="2.23177"/>
<path d="M47 161.778L104.763 165.078L50.3007 166.729V204.687L104.763 207.988L47 209.638V161.778Z" stroke="url(#paint19_linear_120_214)" stroke-width="2.23177"/>
<path d="M108.064 204.687L114.665 227.792L195.533 239.345L276.401 226.142L284.653 204.687L278.052 231.093L195.533 244.296L111.364 229.443L108.064 204.687Z" stroke="url(#paint20_linear_120_214)" stroke-width="2.23177"/>
<path d="M339.115 204.687L287.954 207.988H344.067L342.416 163.428L286.304 165.078L339.115 166.729V204.687Z" stroke="url(#paint21_linear_120_214)" stroke-width="2.23177"/>
<path d="M121.267 151.876L139.421 153.526H117.966L103.113 150.225L109.714 138.673V113.917L124.567 89.1615L144.372 84.2103L154.331 71.406C155.353 70.0913 156.845 69.2234 158.493 68.9841L186.36 64.9385C186.973 64.8494 187.593 64.8047 188.212 64.8047H203.074C203.698 64.8047 204.322 64.85 204.939 64.9404L232.577 68.982C234.223 69.2226 235.712 70.0901 236.733 71.403L246.695 84.2103L266.499 90.8118L281.352 113.917L279.702 140.323L286.304 150.225L264.849 155.176H251.646L283.003 148.575L278.052 141.973L266.499 145.274L256.597 143.624L266.499 141.973L276.401 138.673L278.052 117.218H258.247L276.401 113.917L263.198 92.4622L245.044 85.8607L225.24 84.2103L241.744 82.56L233.492 71.0074L203.656 66.3657L187.539 65.7211L154.274 72.6578L146.022 84.2103H160.876L126.218 92.4622L113.015 115.567L131.169 117.218H111.364L113.015 138.673L122.917 141.973L132.819 145.274H121.267L111.364 141.973L108.064 148.575L121.267 151.876Z" stroke="url(#paint22_linear_120_214)" stroke-width="2.23177"/>
<path d="M159.225 74.3081L185.631 70.2338L184.858 70.579C179.439 73.0008 179.946 80.8543 185.631 82.56L154.274 80.9096L159.225 74.3081Z" stroke="url(#paint23_linear_120_214)" stroke-width="2.23177"/>
<path d="M203.785 82.56L204.719 82.3266C210.697 80.832 211.292 72.5702 205.59 70.2338L231.841 74.3081L235.142 80.9096L203.785 82.56Z" stroke="url(#paint24_linear_120_214)" stroke-width="2.23177"/>
<path d="M174.078 85.8607H171.798C170.088 85.8607 168.448 86.5399 167.239 87.7489L164.104 90.8842C161.981 93.0073 160.381 95.5955 159.432 98.4439L157.575 104.015L162.62 96.4464C163.652 94.8986 164.902 93.5078 166.331 92.3169L174.078 85.8607Z" stroke="url(#paint25_linear_120_214)" stroke-width="2.23177"/>
<path d="M221.939 85.8607H216.988L224.286 92.7974L233.492 102.364L228.541 94.1126L221.939 85.8607Z" stroke="url(#paint26_linear_120_214)" stroke-width="2.23177"/>
<path d="M127.971 101.676L131.169 97.4133L152.624 110.616H134.523C132.375 110.616 130.316 109.763 128.797 108.245L128.411 107.858C128.051 107.499 127.752 107.084 127.525 106.629C126.724 105.027 126.897 103.11 127.971 101.676Z" stroke="url(#paint27_linear_120_214)" stroke-width="2.23177"/>
<path d="M259.898 97.4133L236.793 110.616H252.635C253.075 110.616 253.513 110.573 253.945 110.487L257.776 109.72C260.109 109.254 262.012 107.573 262.764 105.317C263.042 104.483 262.978 103.573 262.585 102.787L259.898 97.4133Z" stroke="url(#paint28_linear_120_214)" stroke-width="2.23177"/>
<path d="M134.47 120.518L117.966 122.169L131.169 123.819V130.421L122.917 132.071H134.47V120.518Z" stroke="url(#paint29_linear_120_214)" stroke-width="2.23177"/>
<path d="M150.973 117.218L142.721 135.372L154.274 120.518H236.793L248.345 135.372L238.443 117.218H150.973Z" stroke="url(#paint30_linear_120_214)" stroke-width="2.23177"/>
<path d="M165.827 123.819H223.641C222.601 125.836 220.495 127.077 218.227 127.009L195.275 126.321L171.166 127.014C168.916 127.079 166.833 125.832 165.827 123.819Z" stroke="url(#paint31_linear_120_214)" stroke-width="2.23177"/>
<path d="M223.606 128.77H163.106C162.731 128.77 162.368 128.901 162.078 129.14C160.902 130.111 161.606 132.022 163.132 131.998L195.92 131.478L223.576 131.997C225.019 132.024 225.769 130.289 224.761 129.257C224.457 128.946 224.041 128.77 223.606 128.77Z" stroke="url(#paint32_linear_120_214)" stroke-width="2.23177"/>
<path d="M233.492 135.372H152.624L195.92 137.925L233.492 135.372Z" stroke="url(#paint33_linear_120_214)" stroke-width="2.23177"/>
<path d="M241.744 148.575H144.372L197.195 153.465C197.633 153.505 198.075 153.501 198.512 153.452L241.744 148.575Z" stroke="url(#paint34_linear_120_214)" stroke-width="2.23177"/>
<path d="M271.45 122.169L254.947 120.518V132.071H266.499L258.247 130.421V123.819L271.45 122.169Z" stroke="url(#paint35_linear_120_214)" stroke-width="2.23177"/>
</g>
<g filter="url(#filter1_d_120_214)">
<mask id="path-2-inside-1_120_214" fill="white">
<path d="M142.799 207.233H134.389C132.492 207.233 131.085 206.837 130.168 206.045C129.251 205.232 128.792 203.971 128.792 202.262V187.442C128.792 185.712 129.251 184.451 130.168 183.658C131.085 182.846 132.492 182.439 134.389 182.439H142.799V185.972H133.232C132.94 185.972 132.794 186.118 132.794 186.41V203.293C132.794 203.564 132.94 203.7 133.232 203.7H142.799V207.233ZM163.68 207.233L162.273 201.011H152.799L151.205 207.233H147.547L153.206 186.316C153.497 185.253 153.8 184.44 154.112 183.877C154.425 183.294 154.873 182.887 155.457 182.658C156.04 182.429 156.853 182.324 157.896 182.345L161.772 182.439L167.619 207.233H163.68ZM156.645 186.254L153.643 197.634H161.522L158.802 185.816H157.083C156.832 185.816 156.687 185.962 156.645 186.254ZM174.216 207.233V182.439L184.659 182.283C186.597 182.241 188.056 182.679 189.036 183.596C190.037 184.492 190.537 185.826 190.537 187.598V192.038C190.537 194.685 189.39 196.363 187.098 197.072C187.723 197.509 188.244 198.333 188.661 199.542L191.381 207.233H187.41L184.284 198.009C184.221 197.822 184.148 197.697 184.065 197.634C184.002 197.551 183.867 197.509 183.658 197.509H178.156V207.233H174.216ZM186.003 185.722H178.156V194.133H186.003C186.337 194.133 186.503 193.955 186.503 193.601V186.222C186.503 185.889 186.337 185.722 186.003 185.722ZM212.633 207.233L211.226 201.011H201.752L200.158 207.233H196.5L202.159 186.316C202.45 185.253 202.753 184.44 203.065 183.877C203.378 183.294 203.826 182.887 204.41 182.658C204.993 182.429 205.806 182.324 206.848 182.345L210.725 182.439L216.572 207.233H212.633ZM205.598 186.254L202.596 197.634H210.475L207.755 185.816H206.036C205.785 185.816 205.64 185.962 205.598 186.254ZM226.577 207.233V185.847H220.543V182.439H236.52V185.847H230.516V207.233H226.577ZM242.566 187.129C242.566 185.399 243.014 184.138 243.91 183.346C244.828 182.554 246.235 182.158 248.131 182.158H254.572C256.448 182.158 257.845 182.554 258.762 183.346C259.679 184.138 260.137 185.399 260.137 187.129V202.574C260.137 204.284 259.679 205.534 258.762 206.326C257.845 207.118 256.448 207.514 254.572 207.514H248.131C246.235 207.514 244.828 207.118 243.91 206.326C243.014 205.534 242.566 204.284 242.566 202.574V187.129ZM246.974 185.691C246.704 185.691 246.568 185.826 246.568 186.097V203.575C246.568 203.846 246.704 203.981 246.974 203.981H255.698C255.969 203.981 256.104 203.846 256.104 203.575V186.097C256.104 185.826 255.969 185.691 255.698 185.691H246.974Z"/>
</mask>
<path d="M142.799 207.233H134.389C132.492 207.233 131.085 206.837 130.168 206.045C129.251 205.232 128.792 203.971 128.792 202.262V187.442C128.792 185.712 129.251 184.451 130.168 183.658C131.085 182.846 132.492 182.439 134.389 182.439H142.799V185.972H133.232C132.94 185.972 132.794 186.118 132.794 186.41V203.293C132.794 203.564 132.94 203.7 133.232 203.7H142.799V207.233ZM163.68 207.233L162.273 201.011H152.799L151.205 207.233H147.547L153.206 186.316C153.497 185.253 153.8 184.44 154.112 183.877C154.425 183.294 154.873 182.887 155.457 182.658C156.04 182.429 156.853 182.324 157.896 182.345L161.772 182.439L167.619 207.233H163.68ZM156.645 186.254L153.643 197.634H161.522L158.802 185.816H157.083C156.832 185.816 156.687 185.962 156.645 186.254ZM174.216 207.233V182.439L184.659 182.283C186.597 182.241 188.056 182.679 189.036 183.596C190.037 184.492 190.537 185.826 190.537 187.598V192.038C190.537 194.685 189.39 196.363 187.098 197.072C187.723 197.509 188.244 198.333 188.661 199.542L191.381 207.233H187.41L184.284 198.009C184.221 197.822 184.148 197.697 184.065 197.634C184.002 197.551 183.867 197.509 183.658 197.509H178.156V207.233H174.216ZM186.003 185.722H178.156V194.133H186.003C186.337 194.133 186.503 193.955 186.503 193.601V186.222C186.503 185.889 186.337 185.722 186.003 185.722ZM212.633 207.233L211.226 201.011H201.752L200.158 207.233H196.5L202.159 186.316C202.45 185.253 202.753 184.44 203.065 183.877C203.378 183.294 203.826 182.887 204.41 182.658C204.993 182.429 205.806 182.324 206.848 182.345L210.725 182.439L216.572 207.233H212.633ZM205.598 186.254L202.596 197.634H210.475L207.755 185.816H206.036C205.785 185.816 205.64 185.962 205.598 186.254ZM226.577 207.233V185.847H220.543V182.439H236.52V185.847H230.516V207.233H226.577ZM242.566 187.129C242.566 185.399 243.014 184.138 243.91 183.346C244.828 182.554 246.235 182.158 248.131 182.158H254.572C256.448 182.158 257.845 182.554 258.762 183.346C259.679 184.138 260.137 185.399 260.137 187.129V202.574C260.137 204.284 259.679 205.534 258.762 206.326C257.845 207.118 256.448 207.514 254.572 207.514H248.131C246.235 207.514 244.828 207.118 243.91 206.326C243.014 205.534 242.566 204.284 242.566 202.574V187.129ZM246.974 185.691C246.704 185.691 246.568 185.826 246.568 186.097V203.575C246.568 203.846 246.704 203.981 246.974 203.981H255.698C255.969 203.981 256.104 203.846 256.104 203.575V186.097C256.104 185.826 255.969 185.691 255.698 185.691H246.974Z" fill="#F7E9A8"/>
<path d="M142.799 207.233V213.68H149.246V207.233H142.799ZM130.168 206.045L125.892 210.869L125.923 210.897L125.954 210.924L130.168 206.045ZM130.168 183.658L134.382 188.538L134.413 188.51L134.444 188.483L130.168 183.658ZM142.799 182.439H149.246V175.992H142.799V182.439ZM142.799 185.972V192.419H149.246V185.972H142.799ZM142.799 203.7H149.246V197.253H142.799V203.7ZM142.799 200.786H134.389V213.68H142.799V200.786ZM134.389 200.786C134.136 200.786 133.952 200.773 133.826 200.758C133.699 200.743 133.648 200.728 133.658 200.73C133.68 200.736 133.993 200.83 134.382 201.166L125.954 210.924C128.547 213.163 131.777 213.68 134.389 213.68V200.786ZM134.444 201.22C134.863 201.592 135.093 202.006 135.195 202.286C135.282 202.525 135.239 202.561 135.239 202.262H122.346C122.346 205.061 123.116 208.408 125.892 210.869L134.444 201.22ZM135.239 202.262V187.442H122.346V202.262H135.239ZM135.239 187.442C135.239 187.121 135.285 187.155 135.195 187.401C135.089 187.692 134.844 188.139 134.382 188.538L125.954 178.779C123.095 181.249 122.346 184.665 122.346 187.442H135.239ZM134.444 188.483C134.06 188.824 133.74 188.926 133.7 188.937C133.683 188.942 133.727 188.928 133.845 188.914C133.964 188.899 134.142 188.886 134.389 188.886V175.992C131.744 175.992 128.488 176.533 125.892 178.834L134.444 188.483ZM134.389 188.886H142.799V175.992H134.389V188.886ZM136.353 182.439V185.972H149.246V182.439H136.353ZM142.799 179.525H133.232V192.419H142.799V179.525ZM133.232 179.525C132.093 179.525 130.054 179.815 128.345 181.523C126.637 183.231 126.348 185.27 126.348 186.41H139.241C139.241 187.258 139.025 189.078 137.462 190.64C135.9 192.203 134.08 192.419 133.232 192.419V179.525ZM126.348 186.41V203.293H139.241V186.41H126.348ZM126.348 203.293C126.348 204.55 126.708 206.643 128.517 208.322C130.236 209.918 132.206 210.147 133.232 210.147V197.253C133.966 197.253 135.718 197.414 137.291 198.874C138.953 200.418 139.241 202.308 139.241 203.293H126.348ZM133.232 210.147H142.799V197.253H133.232V210.147ZM136.353 203.7V207.233H149.246V203.7H136.353ZM163.68 207.233L157.392 208.655L158.528 213.68H163.68V207.233ZM162.273 201.011L168.561 199.589L167.424 194.564H162.273V201.011ZM152.799 201.011V194.564H147.796L146.554 199.411L152.799 201.011ZM151.205 207.233V213.68H156.208L157.45 208.833L151.205 207.233ZM147.547 207.233L141.324 205.549L139.124 213.68H147.547V207.233ZM153.206 186.316L146.989 184.61L146.986 184.621L146.983 184.632L153.206 186.316ZM154.112 183.877L159.748 187.008L159.772 186.965L159.795 186.922L154.112 183.877ZM155.457 182.658L157.814 188.658L157.814 188.658L155.457 182.658ZM157.896 182.345L158.051 175.9L158.038 175.9L158.024 175.9L157.896 182.345ZM161.772 182.439L168.047 180.959L166.905 176.115L161.928 175.994L161.772 182.439ZM167.619 207.233V213.68H175.763L173.894 205.753L167.619 207.233ZM156.645 186.254L162.878 187.898L162.974 187.536L163.027 187.165L156.645 186.254ZM153.643 197.634L147.41 195.99L145.276 204.081H153.643V197.634ZM161.522 197.634V204.081H169.621L167.805 196.188L161.522 197.634ZM158.802 185.816L165.085 184.37L163.934 179.369H158.802V185.816ZM169.968 205.811L168.561 199.589L155.985 202.433L157.392 208.655L169.968 205.811ZM162.273 194.564H152.799V207.458H162.273V194.564ZM146.554 199.411L144.96 205.632L157.45 208.833L159.044 202.611L146.554 199.411ZM151.205 200.786H147.547V213.68H151.205V200.786ZM153.77 208.917L159.429 188L146.983 184.632L141.324 205.549L153.77 208.917ZM159.422 188.023C159.531 187.627 159.623 187.345 159.694 187.156C159.768 186.957 159.793 186.927 159.748 187.008L148.477 180.747C147.799 181.967 147.335 183.348 146.989 184.61L159.422 188.023ZM159.795 186.922C159.636 187.219 159.385 187.573 159.014 187.91C158.639 188.25 158.222 188.498 157.814 188.658L153.1 176.658C151.008 177.479 149.421 178.982 148.43 180.833L159.795 186.922ZM157.814 188.658C157.643 188.725 157.512 188.762 157.435 188.78C157.357 188.798 157.317 188.803 157.324 188.802C157.33 188.802 157.369 188.797 157.446 188.793C157.523 188.79 157.629 188.788 157.767 188.791L158.024 175.9C156.621 175.872 154.829 175.978 153.1 176.658L157.814 188.658ZM157.74 188.79L161.617 188.884L161.928 175.994L158.051 175.9L157.74 188.79ZM155.498 183.919L161.345 208.713L173.894 205.753L168.047 180.959L155.498 183.919ZM167.619 200.786H163.68V213.68H167.619V200.786ZM150.411 184.61L147.41 195.99L159.877 199.278L162.878 187.898L150.411 184.61ZM153.643 204.081H161.522V191.188H153.643V204.081ZM167.805 196.188L165.085 184.37L152.52 187.262L155.24 199.08L167.805 196.188ZM158.802 179.369H157.083V192.263H158.802V179.369ZM157.083 179.369C155.635 179.369 153.758 179.836 152.227 181.367C150.825 182.769 150.399 184.388 150.263 185.342L163.027 187.165C162.932 187.827 162.601 189.227 161.344 190.484C159.959 191.868 158.28 192.263 157.083 192.263V179.369ZM174.216 207.233H167.769V213.68H174.216V207.233ZM174.216 182.439L174.12 175.993L167.769 176.088V182.439H174.216ZM184.659 182.283L184.755 188.729L184.776 188.729L184.797 188.728L184.659 182.283ZM189.036 183.596L184.63 188.302L184.682 188.351L184.734 188.398L189.036 183.596ZM187.098 197.072L185.194 190.912L172.612 194.801L183.401 202.353L187.098 197.072ZM188.661 199.542L182.566 201.643L182.575 201.667L182.583 201.691L188.661 199.542ZM191.381 207.233V213.68H200.499L197.459 205.083L191.381 207.233ZM187.41 207.233L181.305 209.303L182.788 213.68H187.41V207.233ZM184.284 198.009L178.168 200.048L178.173 200.064L178.178 200.079L184.284 198.009ZM184.065 197.634L178.907 201.502L179.46 202.239L180.197 202.792L184.065 197.634ZM178.156 197.509V191.062H171.709V197.509H178.156ZM178.156 207.233V213.68H184.602V207.233H178.156ZM178.156 185.722V179.275H171.709V185.722H178.156ZM178.156 194.133H171.709V200.579H178.156V194.133ZM180.663 207.233V182.439H167.769V207.233H180.663ZM174.313 188.885L184.755 188.729L184.562 175.837L174.12 175.993L174.313 188.885ZM184.797 188.728C185.268 188.718 185.419 188.774 185.355 188.755C185.315 188.743 185.216 188.709 185.081 188.633C184.942 188.557 184.786 188.448 184.63 188.302L193.442 178.89C190.777 176.395 187.394 175.776 184.52 175.838L184.797 188.728ZM184.734 188.398C184.587 188.266 184.454 188.113 184.344 187.949C184.235 187.787 184.166 187.641 184.125 187.532C184.047 187.323 184.09 187.304 184.09 187.598H196.984C196.984 184.611 196.104 181.272 193.338 178.794L184.734 188.398ZM184.09 187.598V192.038H196.984V187.598H184.09ZM184.09 192.038C184.09 192.453 184.003 192.159 184.354 191.645C184.524 191.396 184.731 191.198 184.927 191.062C185.113 190.933 185.226 190.902 185.194 190.912L189.001 203.231C191.278 202.527 193.462 201.169 195 198.918C196.498 196.726 196.984 194.27 196.984 192.038H184.09ZM183.401 202.353C182.85 201.967 182.585 201.583 182.51 201.465C182.435 201.347 182.473 201.373 182.566 201.643L194.755 197.44C194.166 195.731 193.063 193.378 190.795 191.79L183.401 202.353ZM182.583 201.691L185.303 209.382L197.459 205.083L194.739 197.392L182.583 201.691ZM191.381 200.786H187.41V213.68H191.381V200.786ZM193.516 205.163L190.389 195.94L178.178 200.079L181.305 209.303L193.516 205.163ZM190.4 195.971C190.239 195.489 189.652 193.766 187.933 192.477L180.197 202.792C179.337 202.147 178.853 201.434 178.613 201.023C178.362 200.592 178.23 200.234 178.168 200.048L190.4 195.971ZM189.222 193.766C188.125 192.304 186.721 191.659 185.812 191.379C184.915 191.103 184.133 191.062 183.658 191.062V203.956C183.392 203.956 182.782 203.937 182.02 203.702C181.247 203.464 179.942 202.882 178.907 201.502L189.222 193.766ZM183.658 191.062H178.156V203.956H183.658V191.062ZM171.709 197.509V207.233H184.602V197.509H171.709ZM178.156 200.786H174.216V213.68H178.156V200.786ZM186.003 179.275H178.156V192.169H186.003V179.275ZM171.709 185.722V194.133H184.602V185.722H171.709ZM178.156 200.579H186.003V187.686H178.156V200.579ZM186.003 200.579C187.267 200.579 189.372 200.225 191.073 198.418C192.704 196.685 192.95 194.678 192.95 193.601H180.057C180.057 192.879 180.219 191.137 181.684 189.581C183.218 187.952 185.073 187.686 186.003 187.686V200.579ZM192.95 193.601V186.222H180.057V193.601H192.95ZM192.95 186.222C192.95 185.062 192.656 183.007 190.937 181.289C189.218 179.57 187.164 179.275 186.003 179.275V192.169C185.176 192.169 183.372 191.958 181.82 190.406C180.268 188.854 180.057 187.049 180.057 186.222H192.95ZM212.633 207.233L206.345 208.655L207.481 213.68H212.633V207.233ZM211.226 201.011L217.514 199.589L216.377 194.564H211.226V201.011ZM201.752 201.011V194.564H196.749L195.507 199.411L201.752 201.011ZM200.158 207.233V213.68H205.161L206.403 208.833L200.158 207.233ZM196.5 207.233L190.276 205.549L188.077 213.68H196.5V207.233ZM202.159 186.316L195.942 184.61L195.939 184.621L195.936 184.632L202.159 186.316ZM203.065 183.877L208.701 187.008L208.725 186.965L208.748 186.922L203.065 183.877ZM204.41 182.658L206.767 188.658L206.767 188.658L204.41 182.658ZM206.848 182.345L207.004 175.9L206.991 175.9L206.977 175.9L206.848 182.345ZM210.725 182.439L217 180.959L215.858 176.115L210.881 175.994L210.725 182.439ZM216.572 207.233V213.68H224.716L222.847 205.753L216.572 207.233ZM205.598 186.254L211.831 187.898L211.927 187.536L211.98 187.165L205.598 186.254ZM202.596 197.634L196.363 195.99L194.229 204.081H202.596V197.634ZM210.475 197.634V204.081H218.574L216.758 196.188L210.475 197.634ZM207.755 185.816L214.038 184.37L212.887 179.369H207.755V185.816ZM218.921 205.811L217.514 199.589L204.938 202.433L206.345 208.655L218.921 205.811ZM211.226 194.564H201.752V207.458H211.226V194.564ZM195.507 199.411L193.913 205.632L206.403 208.833L207.997 202.611L195.507 199.411ZM200.158 200.786H196.5V213.68H200.158V200.786ZM202.723 208.917L208.382 188L195.936 184.632L190.276 205.549L202.723 208.917ZM208.375 188.023C208.484 187.627 208.576 187.345 208.647 187.156C208.721 186.957 208.746 186.927 208.701 187.008L197.43 180.747C196.752 181.967 196.288 183.348 195.942 184.61L208.375 188.023ZM208.748 186.922C208.589 187.219 208.338 187.573 207.967 187.91C207.592 188.25 207.175 188.498 206.767 188.658L202.052 176.658C199.961 177.479 198.374 178.982 197.383 180.833L208.748 186.922ZM206.767 188.658C206.596 188.725 206.465 188.762 206.388 188.78C206.31 188.798 206.27 188.803 206.277 188.802C206.283 188.802 206.322 188.797 206.399 188.793C206.476 188.79 206.582 188.788 206.72 188.791L206.977 175.9C205.574 175.872 203.782 175.978 202.052 176.658L206.767 188.658ZM206.693 188.79L210.57 188.884L210.881 175.994L207.004 175.9L206.693 188.79ZM204.451 183.919L210.298 208.713L222.847 205.753L217 180.959L204.451 183.919ZM216.572 200.786H212.633V213.68H216.572V200.786ZM199.364 184.61L196.363 195.99L208.83 199.278L211.831 187.898L199.364 184.61ZM202.596 204.081H210.475V191.188H202.596V204.081ZM216.758 196.188L214.038 184.37L201.473 187.262L204.193 199.08L216.758 196.188ZM207.755 179.369H206.036V192.263H207.755V179.369ZM206.036 179.369C204.588 179.369 202.711 179.836 201.18 181.367C199.778 182.769 199.352 184.388 199.216 185.342L211.98 187.165C211.885 187.827 211.554 189.227 210.297 190.484C208.912 191.868 207.233 192.263 206.036 192.263V179.369ZM226.577 207.233H220.13V213.68H226.577V207.233ZM226.577 185.847H233.024V179.4H226.577V185.847ZM220.543 185.847H214.096V192.294H220.543V185.847ZM220.543 182.439V175.992H214.096V182.439H220.543ZM236.52 182.439H242.966V175.992H236.52V182.439ZM236.52 185.847V192.294H242.966V185.847H236.52ZM230.516 185.847V179.4H224.07V185.847H230.516ZM230.516 207.233V213.68H236.963V207.233H230.516ZM233.024 207.233V185.847H220.13V207.233H233.024ZM226.577 179.4H220.543V192.294H226.577V179.4ZM226.989 185.847V182.439H214.096V185.847H226.989ZM220.543 188.886H236.52V175.992H220.543V188.886ZM230.073 182.439V185.847H242.966V182.439H230.073ZM236.52 179.4H230.516V192.294H236.52V179.4ZM224.07 185.847V207.233H236.963V185.847H224.07ZM230.516 200.786H226.577V213.68H230.516V200.786ZM243.91 183.346L239.697 178.467L239.669 178.491L239.641 178.515L243.91 183.346ZM258.762 183.346L262.975 178.467V178.467L258.762 183.346ZM258.762 206.326L262.975 211.205V211.205L258.762 206.326ZM243.91 206.326L239.641 211.157L239.669 211.181L239.697 211.205L243.91 206.326ZM249.013 187.129C249.013 186.795 249.059 186.813 248.977 187.044C248.879 187.318 248.644 187.766 248.179 188.177L239.641 178.515C236.834 180.996 236.119 184.394 236.119 187.129H249.013ZM248.124 188.225C247.735 188.561 247.422 188.654 247.4 188.66C247.391 188.663 247.442 188.648 247.568 188.633C247.694 188.618 247.879 188.604 248.131 188.604V175.711C245.519 175.711 242.29 176.228 239.697 178.467L248.124 188.225ZM248.131 188.604H254.572V175.711H248.131V188.604ZM254.572 188.604C254.817 188.604 254.995 188.618 255.115 188.632C255.235 188.647 255.281 188.661 255.268 188.657C255.237 188.648 254.928 188.553 254.548 188.225L262.975 178.467C260.393 176.237 257.185 175.711 254.572 175.711V188.604ZM254.548 188.225C254.086 187.826 253.841 187.38 253.735 187.089C253.645 186.842 253.691 186.809 253.691 187.129H266.584C266.584 184.352 265.835 180.936 262.975 178.467L254.548 188.225ZM253.691 187.129V202.574H266.584V187.129H253.691ZM253.691 202.574C253.691 202.876 253.647 202.83 253.741 202.575C253.85 202.276 254.097 201.836 254.548 201.447L262.975 211.205C265.819 208.749 266.584 205.36 266.584 202.574H253.691ZM254.548 201.447C254.928 201.119 255.237 201.024 255.268 201.015C255.281 201.011 255.235 201.025 255.115 201.04C254.995 201.054 254.817 201.068 254.572 201.068V213.961C257.185 213.961 260.393 213.435 262.975 211.205L254.548 201.447ZM254.572 201.068H248.131V213.961H254.572V201.068ZM248.131 201.068C247.879 201.068 247.694 201.054 247.568 201.039C247.442 201.024 247.391 201.009 247.4 201.012C247.422 201.018 247.735 201.111 248.124 201.447L239.697 211.205C242.29 213.445 245.519 213.961 248.131 213.961V201.068ZM248.179 201.495C248.633 201.896 248.87 202.337 248.971 202.619C249.057 202.86 249.013 202.89 249.013 202.574H236.119C236.119 205.317 236.849 208.689 239.641 211.157L248.179 201.495ZM249.013 202.574V187.129H236.119V202.574H249.013ZM246.974 179.244C245.845 179.244 243.814 179.531 242.111 181.234C240.408 182.937 240.121 184.968 240.121 186.097H253.015C253.015 186.955 252.796 188.783 251.228 190.351C249.661 191.919 247.833 192.138 246.974 192.138V179.244ZM240.121 186.097V203.575H253.015V186.097H240.121ZM240.121 203.575C240.121 204.704 240.408 206.735 242.111 208.438C243.814 210.141 245.845 210.428 246.974 210.428V197.535C247.833 197.535 249.661 197.753 251.228 199.321C252.796 200.889 253.015 202.717 253.015 203.575H240.121ZM246.974 210.428H255.698V197.535H246.974V210.428ZM255.698 210.428C256.827 210.428 258.858 210.141 260.561 208.438C262.264 206.735 262.551 204.704 262.551 203.575H249.657C249.657 202.717 249.876 200.889 251.444 199.321C253.012 197.753 254.839 197.535 255.698 197.535V210.428ZM262.551 203.575V186.097H249.657V203.575H262.551ZM262.551 186.097C262.551 184.968 262.264 182.937 260.561 181.234C258.858 179.531 256.827 179.244 255.698 179.244V192.138C254.839 192.138 253.012 191.919 251.444 190.351C249.876 188.783 249.657 186.955 249.657 186.097H262.551ZM255.698 179.244H246.974V192.138H255.698V179.244Z" fill="url(#paint36_linear_120_214)" mask="url(#path-2-inside-1_120_214)"/>
</g>
<defs>
<filter id="filter0_d_120_214" x="0.333832" y="0.885805" width="390.441" height="298.688" filterUnits="userSpaceOnUse" color-interpolation-filters="sRGB">
<feFlood flood-opacity="0" result="BackgroundImageFix"/>
<feColorMatrix in="SourceAlpha" type="matrix" values="0 0 0 0 0 0 0 0 0 0 0 0 0 0 0 0 0 0 127 0" result="hardAlpha"/>
<feOffset dy="8.59567"/>
<feGaussianBlur stdDeviation="22.7751"/>
<feComposite in2="hardAlpha" operator="out"/>
<feColorMatrix type="matrix" values="0 0 0 0 0 0 0 0 0 0 0 0 0 0 0 0 0 0 0.25 0"/>
<feBlend mode="normal" in2="BackgroundImageFix" result="effect1_dropShadow_120_214"/>
<feBlend mode="normal" in="SourceGraphic" in2="effect1_dropShadow_120_214" result="shape"/>
</filter>
<filter id="filter1_d_120_214" x="123.33" y="182.158" width="142.27" height="36.2815" filterUnits="userSpaceOnUse" color-interpolation-filters="sRGB">
<feFlood flood-opacity="0" result="BackgroundImageFix"/>
<feColorMatrix in="SourceAlpha" type="matrix" values="0 0 0 0 0 0 0 0 0 0 0 0 0 0 0 0 0 0 127 0" result="hardAlpha"/>
<feOffset dy="5.46253"/>
<feGaussianBlur stdDeviation="2.73127"/>
<feComposite in2="hardAlpha" operator="out"/>
<feColorMatrix type="matrix" values="0 0 0 0 0 0 0 0 0 0 0 0 0 0 0 0 0 0 0.25 0"/>
<feBlend mode="normal" in2="BackgroundImageFix" result="effect1_dropShadow_120_214"/>
<feBlend mode="normal" in="SourceGraphic" in2="effect1_dropShadow_120_214" result="shape"/>
</filter>
<linearGradient id="paint0_linear_120_214" x1="195.533" y1="38" x2="195.533" y2="244.296" gradientUnits="userSpaceOnUse">
<stop stop-color="#987C43"/>
<stop offset="0.555" stop-color="#F9EBAA"/>
<stop offset="0.985" stop-color="#A07E43"/>
</linearGradient>
<linearGradient id="paint1_linear_120_214" x1="195.533" y1="38" x2="195.533" y2="244.296" gradientUnits="userSpaceOnUse">
<stop stop-color="#987C43"/>
<stop offset="0.555" stop-color="#F9EBAA"/>
<stop offset="0.985" stop-color="#A07E43"/>
</linearGradient>
<linearGradient id="paint2_linear_120_214" x1="195.533" y1="38" x2="195.533" y2="244.296" gradientUnits="userSpaceOnUse">
<stop stop-color="#987C43"/>
<stop offset="0.555" stop-color="#F9EBAA"/>
<stop offset="0.985" stop-color="#A07E43"/>
</linearGradient>
<linearGradient id="paint3_linear_120_214" x1="195.533" y1="38" x2="195.533" y2="244.296" gradientUnits="userSpaceOnUse">
<stop stop-color="#987C43"/>
<stop offset="0.555" stop-color="#F9EBAA"/>
<stop offset="0.985" stop-color="#A07E43"/>
</linearGradient>
<linearGradient id="paint4_linear_120_214" x1="195.533" y1="38" x2="195.533" y2="244.296" gradientUnits="userSpaceOnUse">
<stop stop-color="#987C43"/>
<stop offset="0.555" stop-color="#F9EBAA"/>
<stop offset="0.985" stop-color="#A07E43"/>
</linearGradient>
<linearGradient id="paint5_linear_120_214" x1="195.533" y1="38" x2="195.533" y2="244.296" gradientUnits="userSpaceOnUse">
<stop stop-color="#987C43"/>
<stop offset="0.555" stop-color="#F9EBAA"/>
<stop offset="0.985" stop-color="#A07E43"/>
</linearGradient>
<linearGradient id="paint6_linear_120_214" x1="195.533" y1="38" x2="195.533" y2="244.296" gradientUnits="userSpaceOnUse">
<stop stop-color="#987C43"/>
<stop offset="0.555" stop-color="#F9EBAA"/>
<stop offset="0.985" stop-color="#A07E43"/>
</linearGradient>
<linearGradient id="paint7_linear_120_214" x1="195.533" y1="38" x2="195.533" y2="244.296" gradientUnits="userSpaceOnUse">
<stop stop-color="#987C43"/>
<stop offset="0.555" stop-color="#F9EBAA"/>
<stop offset="0.985" stop-color="#A07E43"/>
</linearGradient>
<linearGradient id="paint8_linear_120_214" x1="195.533" y1="38" x2="195.533" y2="244.296" gradientUnits="userSpaceOnUse">
<stop stop-color="#987C43"/>
<stop offset="0.555" stop-color="#F9EBAA"/>
<stop offset="0.985" stop-color="#A07E43"/>
</linearGradient>
<linearGradient id="paint9_linear_120_214" x1="195.533" y1="38" x2="195.533" y2="244.296" gradientUnits="userSpaceOnUse">
<stop stop-color="#987C43"/>
<stop offset="0.555" stop-color="#F9EBAA"/>
<stop offset="0.985" stop-color="#A07E43"/>
</linearGradient>
<linearGradient id="paint10_linear_120_214" x1="195.533" y1="38" x2="195.533" y2="244.296" gradientUnits="userSpaceOnUse">
<stop stop-color="#987C43"/>
<stop offset="0.555" stop-color="#F9EBAA"/>
<stop offset="0.985" stop-color="#A07E43"/>
</linearGradient>
<linearGradient id="paint11_linear_120_214" x1="195.533" y1="38" x2="195.533" y2="244.296" gradientUnits="userSpaceOnUse">
<stop stop-color="#987C43"/>
<stop offset="0.555" stop-color="#F9EBAA"/>
<stop offset="0.985" stop-color="#A07E43"/>
</linearGradient>
<linearGradient id="paint12_linear_120_214" x1="195.533" y1="38" x2="195.533" y2="244.296" gradientUnits="userSpaceOnUse">
<stop stop-color="#987C43"/>
<stop offset="0.555" stop-color="#F9EBAA"/>
<stop offset="0.985" stop-color="#A07E43"/>
</linearGradient>
<linearGradient id="paint13_linear_120_214" x1="195.533" y1="38" x2="195.533" y2="244.296" gradientUnits="userSpaceOnUse">
<stop stop-color="#987C43"/>
<stop offset="0.555" stop-color="#F9EBAA"/>
<stop offset="0.985" stop-color="#A07E43"/>
</linearGradient>
<linearGradient id="paint14_linear_120_214" x1="195.533" y1="38" x2="195.533" y2="244.296" gradientUnits="userSpaceOnUse">
<stop stop-color="#987C43"/>
<stop offset="0.555" stop-color="#F9EBAA"/>
<stop offset="0.985" stop-color="#A07E43"/>
</linearGradient>
<linearGradient id="paint15_linear_120_214" x1="195.533" y1="38" x2="195.533" y2="244.296" gradientUnits="userSpaceOnUse">
<stop stop-color="#987C43"/>
<stop offset="0.555" stop-color="#F9EBAA"/>
<stop offset="0.985" stop-color="#A07E43"/>
</linearGradient>
<linearGradient id="paint16_linear_120_214" x1="195.533" y1="38" x2="195.533" y2="244.296" gradientUnits="userSpaceOnUse">
<stop stop-color="#987C43"/>
<stop offset="0.555" stop-color="#F9EBAA"/>
<stop offset="0.985" stop-color="#A07E43"/>
</linearGradient>
<linearGradient id="paint17_linear_120_214" x1="195.533" y1="38" x2="195.533" y2="244.296" gradientUnits="userSpaceOnUse">
<stop stop-color="#987C43"/>
<stop offset="0.555" stop-color="#F9EBAA"/>
<stop offset="0.985" stop-color="#A07E43"/>
</linearGradient>
<linearGradient id="paint18_linear_120_214" x1="195.533" y1="38" x2="195.533" y2="244.296" gradientUnits="userSpaceOnUse">
<stop stop-color="#9D7B47"/>
<stop offset="1" stop-color="#F6E39A"/>
</linearGradient>
<linearGradient id="paint19_linear_120_214" x1="195.533" y1="38" x2="195.533" y2="244.296" gradientUnits="userSpaceOnUse">
<stop stop-color="#9D7B47"/>
<stop offset="1" stop-color="#F6E39A"/>
</linearGradient>
<linearGradient id="paint20_linear_120_214" x1="195.533" y1="38" x2="195.533" y2="244.296" gradientUnits="userSpaceOnUse">
<stop stop-color="#9D7B47"/>
<stop offset="1" stop-color="#F6E39A"/>
</linearGradient>
<linearGradient id="paint21_linear_120_214" x1="195.533" y1="38" x2="195.533" y2="244.296" gradientUnits="userSpaceOnUse">
<stop stop-color="#9D7B47"/>
<stop offset="1" stop-color="#F6E39A"/>
</linearGradient>
<linearGradient id="paint22_linear_120_214" x1="195.533" y1="38" x2="195.533" y2="244.296" gradientUnits="userSpaceOnUse">
<stop stop-color="#9D7B47"/>
<stop offset="1" stop-color="#F6E39A"/>
</linearGradient>
<linearGradient id="paint23_linear_120_214" x1="195.533" y1="38" x2="195.533" y2="244.296" gradientUnits="userSpaceOnUse">
<stop stop-color="#9D7B47"/>
<stop offset="1" stop-color="#F6E39A"/>
</linearGradient>
<linearGradient id="paint24_linear_120_214" x1="195.533" y1="38" x2="195.533" y2="244.296" gradientUnits="userSpaceOnUse">
<stop stop-color="#9D7B47"/>
<stop offset="1" stop-color="#F6E39A"/>
</linearGradient>
<linearGradient id="paint25_linear_120_214" x1="195.533" y1="38" x2="195.533" y2="244.296" gradientUnits="userSpaceOnUse">
<stop stop-color="#9D7B47"/>
<stop offset="1" stop-color="#F6E39A"/>
</linearGradient>
<linearGradient id="paint26_linear_120_214" x1="195.533" y1="38" x2="195.533" y2="244.296" gradientUnits="userSpaceOnUse">
<stop stop-color="#9D7B47"/>
<stop offset="1" stop-color="#F6E39A"/>
</linearGradient>
<linearGradient id="paint27_linear_120_214" x1="195.533" y1="38" x2="195.533" y2="244.296" gradientUnits="userSpaceOnUse">
<stop stop-color="#9D7B47"/>
<stop offset="1" stop-color="#F6E39A"/>
</linearGradient>
<linearGradient id="paint28_linear_120_214" x1="195.533" y1="38" x2="195.533" y2="244.296" gradientUnits="userSpaceOnUse">
<stop stop-color="#9D7B47"/>
<stop offset="1" stop-color="#F6E39A"/>
</linearGradient>
<linearGradient id="paint29_linear_120_214" x1="195.533" y1="38" x2="195.533" y2="244.296" gradientUnits="userSpaceOnUse">
<stop stop-color="#9D7B47"/>
<stop offset="1" stop-color="#F6E39A"/>
</linearGradient>
<linearGradient id="paint30_linear_120_214" x1="195.533" y1="38" x2="195.533" y2="244.296" gradientUnits="userSpaceOnUse">
<stop stop-color="#9D7B47"/>
<stop offset="1" stop-color="#F6E39A"/>
</linearGradient>
<linearGradient id="paint31_linear_120_214" x1="195.533" y1="38" x2="195.533" y2="244.296" gradientUnits="userSpaceOnUse">
<stop stop-color="#9D7B47"/>
<stop offset="1" stop-color="#F6E39A"/>
</linearGradient>
<linearGradient id="paint32_linear_120_214" x1="195.533" y1="38" x2="195.533" y2="244.296" gradientUnits="userSpaceOnUse">
<stop stop-color="#9D7B47"/>
<stop offset="1" stop-color="#F6E39A"/>
</linearGradient>
<linearGradient id="paint33_linear_120_214" x1="195.533" y1="38" x2="195.533" y2="244.296" gradientUnits="userSpaceOnUse">
<stop stop-color="#9D7B47"/>
<stop offset="1" stop-color="#F6E39A"/>
</linearGradient>
<linearGradient id="paint34_linear_120_214" x1="195.533" y1="38" x2="195.533" y2="244.296" gradientUnits="userSpaceOnUse">
<stop stop-color="#9D7B47"/>
<stop offset="1" stop-color="#F6E39A"/>
</linearGradient>
<linearGradient id="paint35_linear_120_214" x1="195.533" y1="38" x2="195.533" y2="244.296" gradientUnits="userSpaceOnUse">
<stop stop-color="#9D7B47"/>
<stop offset="1" stop-color="#F6E39A"/>
</linearGradient>
<linearGradient id="paint36_linear_120_214" x1="194.51" y1="171.233" x2="194.51" y2="219.233" gradientUnits="userSpaceOnUse">
<stop stop-color="#D5B86D"/>
<stop offset="1" stop-color="#EFDCA0"/>
</linearGradient>
</defs>
</svg>
